<svg xmlns="http://www.w3.org/2000/svg" xmlns:xlink="http://www.w3.org/1999/xlink" version="1.1" x="0px" y="0px" viewBox="0 0 32 40" enable-background="new 0 0 32 32" xml:space="preserve"><g display="none"><rect x="-69.333" y="-186.661" display="inline" fill="#ffa621" width="473.333" height="236"/></g><g display="none"><g display="inline"><polygon fill="#ffa621" points="32,16 0,27.083 0,4.917   "/></g></g><g><g><path d="M1,6.321L28.945,16L1,25.679V6.321 M0,4.917v22.167L32,16L0,4.917L0,4.917z"/></g></g><g display="none"><g display="inline"><polygon fill="#ffa621" points="0.5,5.618 30.473,16 0.5,26.381   "/><g><path d="M1,6.321L28.945,16L1,25.679V6.321 M0,4.917v22.167L32,16L0,4.917L0,4.917z"/></g></g></g><g display="none"><polygon display="inline" fill="#ffa621" points="32,16 0,27.083 0,4.917  "/></g><text x="0" y="47" fill="#ffa621" font-size="5px" font-weight="bold" font-family="'Helvetica Neue', Helvetica, Arial-Unicode, Arial, Sans-serif">Created by Alfredo @ IconsAlfredo.com</text><text x="0" y="52" fill="#ffa621" font-size="5px" font-weight="bold" font-family="'Helvetica Neue', Helvetica, Arial-Unicode, Arial, Sans-serif">from the Noun Project</text></svg>